<mxfile host="app.diagrams.net" modified="2023-07-30T13:21:05.569Z" agent="Mozilla/5.0 (Windows NT 10.0; Win64; x64) AppleWebKit/537.36 (KHTML, like Gecko) Chrome/115.0.0.0 Safari/537.36" etag="AWPD_XwY7A7AtRBHZgdm" version="21.6.5" type="device">
  <diagram name="‫עמוד-1‬" id="LlmvC5Jc-HnBU8iAei3R">
    <mxGraphModel dx="1434" dy="758" grid="1" gridSize="10" guides="1" tooltips="1" connect="1" arrows="1" fold="1" page="1" pageScale="1" pageWidth="827" pageHeight="1169" math="0" shadow="0">
      <root>
        <mxCell id="0" />
        <mxCell id="1" parent="0" />
        <mxCell id="1XBkMk_ra5XbO7TCvKNR-7" value="" style="edgeStyle=orthogonalEdgeStyle;rounded=0;orthogonalLoop=1;jettySize=auto;html=1;" parent="1" source="1XBkMk_ra5XbO7TCvKNR-1" edge="1">
          <mxGeometry relative="1" as="geometry">
            <mxPoint x="414" y="240" as="targetPoint" />
          </mxGeometry>
        </mxCell>
        <mxCell id="1XBkMk_ra5XbO7TCvKNR-1" value="Start" style="rounded=1;whiteSpace=wrap;html=1;" parent="1" vertex="1">
          <mxGeometry x="354" y="120" width="120" height="60" as="geometry" />
        </mxCell>
        <mxCell id="cejVoAJqypNTUEXJg86t-4" value="" style="edgeStyle=orthogonalEdgeStyle;rounded=0;orthogonalLoop=1;jettySize=auto;html=1;" edge="1" parent="1" source="cejVoAJqypNTUEXJg86t-2" target="cejVoAJqypNTUEXJg86t-3">
          <mxGeometry relative="1" as="geometry" />
        </mxCell>
        <mxCell id="cejVoAJqypNTUEXJg86t-2" value="a" style="rhombus;whiteSpace=wrap;html=1;" vertex="1" parent="1">
          <mxGeometry x="374" y="240" width="80" height="80" as="geometry" />
        </mxCell>
        <mxCell id="cejVoAJqypNTUEXJg86t-6" value="" style="edgeStyle=orthogonalEdgeStyle;rounded=0;orthogonalLoop=1;jettySize=auto;html=1;" edge="1" parent="1" source="cejVoAJqypNTUEXJg86t-3" target="cejVoAJqypNTUEXJg86t-5">
          <mxGeometry relative="1" as="geometry" />
        </mxCell>
        <mxCell id="cejVoAJqypNTUEXJg86t-3" value="b" style="rhombus;whiteSpace=wrap;html=1;" vertex="1" parent="1">
          <mxGeometry x="374" y="360" width="80" height="80" as="geometry" />
        </mxCell>
        <mxCell id="cejVoAJqypNTUEXJg86t-5" value="" style="shape=document;whiteSpace=wrap;html=1;boundedLbl=1;" vertex="1" parent="1">
          <mxGeometry x="354" y="520" width="120" height="80" as="geometry" />
        </mxCell>
      </root>
    </mxGraphModel>
  </diagram>
</mxfile>
